<svg xmlns="http://www.w3.org/2000/svg" width="1920" height="121" viewBox="0 0 1920 121">
  <g id="그룹_2" data-name="그룹 2" transform="translate(0 -479)">
    <path id="패스_19702" data-name="패스 19702" d="M0,441.971H1920V340c-58.133,5.267-119.441,9.14-178,9-198.365-.491-395.642-28.078-594-26.993-155.936.856-309.064,32.107-465,32.991C485.543,356.109,360.459,326.617,163,327c-35.807.07-136.092,11.6-163,13Z" transform="translate(0 157.029)" fill="#202981"/>
    <path id="패스_1" data-name="패스 1" d="M0,391.99v39.981H1920V391.99c-4.346.033-8.682.011-13,0-198.365-.491-395.642-28.072-594-26.987-155.936.855-309.064,32.1-465,32.985C650.543,399.1,525.459,369.616,328,370c-35.807.07-136.092,11.6-163,12.994h0C111.153,387.87,54.587,391.587,0,391.99Z" transform="translate(0 157.029)" fill="#2834a2"/>
    <path id="패스_2" data-name="패스 2" d="M0,443.971H1920V409.987c-.335,0-.665,0-1,0-155.928-.884-309.073-32.129-465-32.985-198.347-1.085-395.646,26.5-594,26.987-58.556.142-119.87-3.731-178-9h0C655.093,393.6,554.805,382.07,519,382c-197.148-.383-322.074,29.007-519,27.987Z" transform="translate(0 156.029)" fill="#212c92"/>
  </g>
</svg>
